<?xml version="1.0" encoding="UTF-8" standalone="no"?>
<!-- Created with Inkscape (http://www.inkscape.org/) -->

<svg
   xmlns:dc="http://purl.org/dc/elements/1.1/"
   xmlns:cc="http://creativecommons.org/ns#"
   xmlns:rdf="http://www.w3.org/1999/02/22-rdf-syntax-ns#"
   xmlns:svg="http://www.w3.org/2000/svg"
   xmlns="http://www.w3.org/2000/svg"
   version="1.1"
   width="574.03717"
   height="574.18323"
   id="svg2">
  <defs
     id="defs4" />
  <metadata
     id="metadata7">
    <rdf:RDF>
      <cc:Work
         rdf:about="">
        <dc:format>image/svg+xml</dc:format>
        <dc:type
           rdf:resource="http://purl.org/dc/dcmitype/StillImage" />
        <dc:title></dc:title>
      </cc:Work>
    </rdf:RDF>
  </metadata>
  <g
     transform="translate(-83.559508,-154.59375)"
     id="layer1">
    <g
       id="g4097">
      <path
         d="m 370.375,230.34375 c -116.42229,0 -210.8125,94.39021 -210.8125,210.8125 0,116.42229 94.39021,210.8125 210.8125,210.8125 116.42229,0 210.78125,-94.39021 210.78125,-210.8125 0,-116.42229 -94.35896,-210.8125 -210.78125,-210.8125 z m -0.0937,108 c 56.78421,0 102.8125,46.02829 102.8125,102.8125 0,56.78421 -46.02829,102.8125 -102.8125,102.8125 -56.78421,0 -102.84375,-46.02829 -102.84375,-102.8125 0,-56.78421 46.05954,-102.8125 102.84375,-102.8125 z"
         id="path3144"
         style="fill:#41403b;fill-opacity:1;stroke:#41403b;stroke-width:5.00793695;stroke-linecap:butt;stroke-linejoin:round;stroke-miterlimit:4;stroke-opacity:1;stroke-dasharray:none" />
      <path
         d="m 393.04469,155.45028 29.8126,81.94348 m -75.54454,-81.94348 22.86597,0 m 0,0 22.86597,0 M 347.3126,155.09375 317.5,237.03723"
         id="path3191"
         style="fill:none;stroke:#000000;stroke-width:1px;stroke-linecap:butt;stroke-linejoin:miter;stroke-opacity:1" />
      <path
         d="m 393.076,727.30373 29.8126,-81.94348 m -75.54454,81.94348 22.86597,0 m 0,0 22.86597,0 m -45.73209,0.35653 -29.8126,-81.94348"
         id="path3194"
         style="fill:none;stroke:#000000;stroke-width:1px;stroke-linecap:butt;stroke-linejoin:miter;stroke-opacity:1" />
      <path
         d="m 656.06545,463.99858 -81.94348,29.8126 m 81.94348,-75.54454 0,22.86597 m 0,0 0,22.86597 m 0.35653,-45.73209 -81.94348,-29.8126"
         id="path3198"
         style="fill:none;stroke:#000000;stroke-width:1px;stroke-linecap:butt;stroke-linejoin:miter;stroke-opacity:1" />
      <path
         d="m 84.653394,463.99858 81.943476,29.8126 m -81.943476,-75.54454 0,22.86597 m 0,0 0,22.86597 m -0.35653,-45.73209 81.943476,-29.8126"
         id="path3208"
         style="fill:none;stroke:#000000;stroke-width:1px;stroke-linecap:butt;stroke-linejoin:miter;stroke-opacity:1" />
      <path
         d="m 184.48861,659.33478 79.02348,-36.8621 m -111.36084,4.52473 16.16868,16.16869 m 0,0 16.16868,16.16868 m -32.58957,-32.08537 36.8621,-79.02348"
         id="path3218"
         style="fill:none;stroke:#000000;stroke-width:1px;stroke-linecap:butt;stroke-linejoin:miter;stroke-opacity:1" />
      <path
         d="m 556.23405,659.33097 -79.02348,-36.8621 m 111.36084,4.52473 -16.16868,16.16869 m 0,0 -16.16868,16.16868 m 32.58957,-32.08537 -36.8621,-79.02348"
         id="path3226"
         style="fill:none;stroke:#000000;stroke-width:1px;stroke-linecap:butt;stroke-linejoin:miter;stroke-opacity:1" />
      <path
         d="m 556.13975,222.88729 -79.02348,36.8621 m 111.36084,-4.52473 -16.16868,-16.16869 m 0,0 -16.16868,-16.16868 m 32.58957,32.08537 -36.8621,79.02348"
         id="path3232"
         style="fill:none;stroke:#000000;stroke-width:1px;stroke-linecap:butt;stroke-linejoin:miter;stroke-opacity:1" />
      <path
         d="m 184.39443,223.07196 79.02348,36.8621 m -111.36084,-4.52473 16.16868,-16.16869 m 0,0 16.16868,-16.16868 m -32.58957,32.08537 36.8621,79.02348"
         id="path3238"
         style="fill:#000000;fill-opacity:1;stroke:#000000;stroke-width:1px;stroke-linecap:butt;stroke-linejoin:miter;stroke-opacity:1" />
      <path
         d="m 320.55942,232.4214 c 0,-0.33308 6.13437,-17.48933 13.63193,-38.125 l 13.63194,-37.5194 22.26108,0 c 16.8899,0 22.37521,0.30161 22.73413,1.25 6.18601,16.34596 26.80556,74.01869 26.55371,74.27054 -0.19179,0.1918 -5.51563,-0.61234 -11.83075,-1.78697 -9.76468,-1.81626 -15.29605,-2.14101 -36.98204,-2.17121 -25.08869,-0.0349 -27.91655,0.20875 -46.75,4.02849 -1.7875,0.36253 -3.25,0.38663 -3.25,0.0536 z"
         id="path4081"
         style="fill:#41403b;fill-opacity:1;stroke:#41403b;stroke-width:4;stroke-linecap:butt;stroke-linejoin:round;stroke-miterlimit:4;stroke-opacity:1;stroke-dasharray:none" />
      <path
         d="m 170.53704,292.78672 -17.34401,-37.11929 15.42109,-15.44521 c 8.48161,-8.49487 15.73831,-15.44522 16.126,-15.44522 0.3877,0 14.79315,6.58263 32.0121,14.62806 17.21896,8.04544 33.74942,15.72502 36.73434,17.06574 l 5.42715,2.43767 -4.42715,2.61551 c -20.64711,12.19811 -49.74926,41.28034 -63.61106,63.56752 l -2.99445,4.81451 -17.34401,-37.11929 0,0 z"
         id="path4083"
         style="fill:#41403b;fill-opacity:1;stroke:#41403b;stroke-width:4;stroke-linecap:butt;stroke-linejoin:round;stroke-miterlimit:4;stroke-opacity:1;stroke-dasharray:none" />
      <path
         d="M 122.81396,476.91844 85.568508,463.277 l -0.0045,-22.14094 -0.0045,-22.14095 11.25,-4.11078 c 52.346232,-19.12743 65.267742,-23.81472 65.384632,-23.71834 0.074,0.0611 -0.67409,4.16101 -1.66252,9.11101 -5.11139,25.59744 -5.14884,54.87384 -0.10372,81.09067 1.21117,6.29377 1.44995,9.37338 0.72117,9.30076 -0.59926,-0.0597 -17.85001,-6.2472 -38.33502,-13.74999 l 0,0 z"
         id="path4085"
         style="fill:#41403b;fill-opacity:1;stroke:#41403b;stroke-width:4;stroke-linecap:butt;stroke-linejoin:round;stroke-miterlimit:4;stroke-opacity:1;stroke-dasharray:none" />
      <path
         d="m 168.6335,642.3512 -15.40172,-15.42581 15.30303,-32.82419 c 8.41667,-18.05331 16.30696,-34.82733 17.53398,-37.27561 l 2.23096,-4.45142 1.65901,3.20818 c 3.5906,6.94345 19.92652,27.22164 29.74694,36.92562 11.50544,11.36903 20.6857,18.97462 31.71571,26.27558 l 7.36198,4.87303 -3.36198,1.44922 c -1.8491,0.79707 -18.37442,8.47417 -36.72295,17.06021 -18.34853,8.58605 -33.65397,15.61099 -34.0121,15.61099 -0.35813,0 -7.58191,-6.94161 -16.05286,-15.4258 z"
         id="path4087"
         style="fill:#41403b;fill-opacity:1;stroke:#41403b;stroke-width:4;stroke-linecap:butt;stroke-linejoin:round;stroke-miterlimit:4;stroke-opacity:1;stroke-dasharray:none" />
      <path
         d="m 336.7168,695.51276 c -6.23844,-17.17967 -12.63431,-34.76502 -14.21303,-39.07856 -2.42096,-6.61476 -2.60574,-7.74124 -1.18004,-7.19415 5.25681,2.01723 26.77219,4.75303 41.29175,5.25049 17.05669,0.58437 32.39074,-0.48338 47.78334,-3.32729 4.58667,-0.84743 8.57451,-1.30567 8.86187,-1.01831 0.28735,0.28736 -5.70325,17.64713 -13.31246,38.57727 l -13.83492,38.05479 -22.02694,-0.0142 -22.02695,-0.0142 -11.34262,-31.23576 z"
         id="path4089"
         style="fill:#41403b;fill-opacity:1;stroke:#41403b;stroke-width:4;stroke-linecap:butt;stroke-linejoin:round;stroke-miterlimit:4;stroke-opacity:1;stroke-dasharray:none" />
      <path
         d="m 520.05942,641.30759 c -19.25,-9.00459 -35.6362,-16.76974 -36.41377,-17.25588 -1.09754,-0.68619 -0.64694,-1.33634 2.0145,-2.90663 20.47659,-12.08148 47.82609,-39.10256 63.37975,-62.61867 l 3.80347,-5.75059 17.23339,36.75059 17.2334,36.75059 -15.61365,15.75 c -8.5875,8.6625 -15.84392,15.72808 -16.12537,15.70129 -0.28144,-0.0268 -16.26172,-7.41611 -35.51172,-16.4207 z"
         id="path4091"
         style="fill:#41403b;fill-opacity:1;stroke:#41403b;stroke-width:4;stroke-linecap:butt;stroke-linejoin:round;stroke-miterlimit:4;stroke-opacity:1;stroke-dasharray:none" />
      <path
         d="m 578.90477,488.527 c 6.41145,-25.66109 6.46048,-64.84905 0.11814,-94.41235 l -0.67843,-3.16235 38.6261,14.10134 38.6261,14.10135 -0.26863,22.03872 -0.26863,22.03871 -37.5,13.70926 c -20.625,7.5401 -37.88628,13.73762 -38.35841,13.77229 -0.47212,0.0347 -0.60543,-0.94947 -0.29624,-2.18697 z"
         id="path4093"
         style="fill:#41403b;fill-opacity:1;stroke:#41403b;stroke-width:4;stroke-linecap:butt;stroke-linejoin:round;stroke-miterlimit:4;stroke-opacity:1;stroke-dasharray:none" />
      <path
         d="m 550.10244,325.527 c -11.4728,-19.74719 -44.42157,-52.69192 -64.29302,-64.28513 -1.7875,-1.04284 -3.24203,-2.13656 -3.23229,-2.43047 0.01,-0.29392 11.37223,-5.80483 25.25,-12.24647 13.87776,-6.44165 30.30978,-14.07124 36.5156,-16.95464 l 11.28331,-5.24257 15.46669,15.44254 c 8.50668,8.4934 15.46669,15.82208 15.46669,16.28595 0,1.32346 -33.39646,72.68079 -34.01586,72.68079 -0.30411,0 -1.40261,-1.4625 -2.44112,-3.25 z"
         id="path4095"
         style="fill:#41403b;fill-opacity:1;stroke:#41403b;stroke-width:4;stroke-linecap:butt;stroke-linejoin:round;stroke-miterlimit:4;stroke-opacity:1;stroke-dasharray:none" />
    </g>
  </g>
</svg>
